<svg width="86" height="69" viewBox="0 0 86 69" fill="none" xmlns="http://www.w3.org/2000/svg">
<path d="M65.5779 25.8743H45.153V33.4218C45.153 38.7724 40.8127 43.1257 35.478 43.1257C30.1433 43.1257 25.803 38.7724 25.803 33.4218V17.0329L17.0821 22.2892C14.4887 23.8391 12.903 26.656 12.903 29.675V36.0499L2.15306 42.2766C0.0971271 43.4627 -0.615059 46.1043 0.580876 48.1664L11.3309 66.8465C12.5134 68.9086 15.1471 69.6094 17.203 68.4234L31.0974 60.3772H49.453C54.1964 60.3772 58.053 56.5091 58.053 51.7515H60.203C62.5814 51.7515 64.5029 49.8241 64.5029 47.4386V38.8129H65.5779C67.3651 38.8129 68.8029 37.3708 68.8029 35.5782V29.1089C68.8029 27.3164 67.3651 25.8743 65.5779 25.8743ZM85.4251 20.8336L74.6751 2.15352C73.4926 0.0914284 70.8589 -0.609412 68.8029 0.576626L54.9086 8.62281H41.1755C39.563 8.62281 37.9908 9.08105 36.6202 9.93015L32.1186 12.747C30.8555 13.5287 30.103 14.9169 30.103 16.3994V33.4218C30.103 36.4004 32.5083 38.8129 35.478 38.8129C38.4477 38.8129 40.853 36.4004 40.853 33.4218V21.5614H65.5779C69.7301 21.5614 73.1029 24.9443 73.1029 29.1089V32.9501L83.8529 26.7234C85.9088 25.5238 86.6076 22.8957 85.4251 20.8336Z" fill="#03AB99"/>
</svg>
