<svg width="71" height="70" viewBox="0 0 71 70" fill="none" xmlns="http://www.w3.org/2000/svg">
<path fill-rule="evenodd" clip-rule="evenodd" d="M36.3541 0.43257C35.9589 0.151202 35.4858 0 35.0007 0C34.5156 0 34.0425 0.151202 33.6474 0.43257L0.98002 23.7664C0.677169 23.982 0.430225 24.2669 0.259756 24.5973C0.0892873 24.9276 0.000229238 25.294 0 25.6658L0 67.6666C0 68.2855 0.245838 68.879 0.683432 69.3166C1.12103 69.7542 1.71453 70 2.33338 70H9.33353V37.3327H32.6673V70H67.6681C68.2869 70 68.8804 69.7542 69.318 69.3166C69.7556 68.879 70.0014 68.2855 70.0014 67.6666V25.6658C70.0012 25.294 69.9122 24.9276 69.7417 24.5973C69.5712 24.2669 69.3243 23.982 69.0214 23.7664L65.3347 21.1297V9.33209H60.6679V17.7976L36.3541 0.437237V0.43257ZM51.3344 55.9997V37.3327H56.0012V55.9997H51.3344Z" fill="#03AB99"/>
</svg>
