<svg width="73" height="73" viewBox="0 0 73 73" fill="none" xmlns="http://www.w3.org/2000/svg">
<path d="M31.3337 62.0001C38.1377 61.9987 44.7457 59.7209 50.1055 55.5294L66.9568 72.3807L72.3772 66.9604L55.5258 50.1091C59.7195 44.7488 61.9987 38.1393 62.0003 31.3334C62.0003 14.4246 48.2425 0.666748 31.3337 0.666748C14.4248 0.666748 0.666992 14.4246 0.666992 31.3334C0.666992 48.2422 14.4248 62.0001 31.3337 62.0001ZM31.3337 8.33341C44.0182 8.33341 54.3337 18.6489 54.3337 31.3334C54.3337 44.0179 44.0182 54.3334 31.3337 54.3334C18.6492 54.3334 8.33366 44.0179 8.33366 31.3334C8.33366 18.6489 18.6492 8.33341 31.3337 8.33341Z" fill="#03AB99"/>
</svg>
