<svg width="72" height="72" viewBox="0 0 72 72" fill="none" xmlns="http://www.w3.org/2000/svg">
<path d="M30.6667 61.3333C37.4707 61.3319 44.0788 59.0541 49.4385 54.8627L66.2898 71.714L71.7102 66.2937L54.8588 49.4423C59.0525 44.082 61.3317 37.4725 61.3333 30.6667C61.3333 13.7578 47.5755 0 30.6667 0C13.7578 0 0 13.7578 0 30.6667C0 47.5755 13.7578 61.3333 30.6667 61.3333ZM30.6667 7.66667C43.3512 7.66667 53.6667 17.9822 53.6667 30.6667C53.6667 43.3512 43.3512 53.6667 30.6667 53.6667C17.9822 53.6667 7.66667 43.3512 7.66667 30.6667C7.66667 17.9822 17.9822 7.66667 30.6667 7.66667Z" fill="#03AB99"/>
<path d="M36.0787 25.2463C37.5315 26.703 38.3327 28.6273 38.3327 30.6667H45.9993C46.0027 28.652 45.6068 26.6566 44.8343 24.7959C44.0619 22.9351 42.9282 21.246 41.499 19.826C35.6953 14.03 25.6328 14.03 19.833 19.826L25.2457 25.254C28.159 22.3483 33.1807 22.356 36.0787 25.2463Z" fill="#03AB99"/>
</svg>
