<svg width="75" height="75" viewBox="0 0 75 75" fill="none" xmlns="http://www.w3.org/2000/svg">
<path d="M18.75 21.0938C16.8958 21.0938 15.0832 20.5439 13.5415 19.5138C11.9998 18.4836 10.7982 17.0195 10.0886 15.3064C9.37906 13.5934 9.19341 11.7084 9.55514 9.88978C9.91688 8.07121 10.8098 6.40074 12.1209 5.08963C13.432 3.77851 15.1025 2.88563 16.921 2.52389C18.7396 2.16216 20.6246 2.34781 22.3377 3.05738C24.0507 3.76695 25.5149 4.96857 26.545 6.51028C27.5752 8.05199 28.125 9.86455 28.125 11.7188C28.125 14.2052 27.1373 16.5897 25.3791 18.3479C23.621 20.106 21.2364 21.0938 18.75 21.0938ZM18.75 7.03125C17.8229 7.03125 16.9166 7.30617 16.1458 7.82124C15.3749 8.33631 14.7741 9.0684 14.4193 9.92492C14.0645 10.7815 13.9717 11.724 14.1526 12.6332C14.3334 13.5425 14.7799 14.3778 15.4354 15.0333C16.091 15.6889 16.9262 16.1353 17.8355 16.3162C18.7448 16.4971 19.6873 16.4042 20.5438 16.0494C21.4004 15.6947 22.1324 15.0938 22.6475 14.323C23.1626 13.5521 23.4375 12.6459 23.4375 11.7188C23.4375 10.4756 22.9436 9.28327 22.0646 8.40419C21.1855 7.52511 19.9932 7.03125 18.75 7.03125Z" fill="#03AB99"/>
<path d="M56.25 21.0938C54.3958 21.0938 52.5832 20.5439 51.0415 19.5138C49.4998 18.4836 48.2982 17.0195 47.5886 15.3064C46.8791 13.5934 46.6934 11.7084 47.0551 9.88978C47.4169 8.07121 48.3098 6.40074 49.6209 5.08963C50.932 3.77851 52.6025 2.88563 54.421 2.52389C56.2396 2.16216 58.1246 2.34781 59.8377 3.05738C61.5507 3.76695 63.0149 4.96857 64.045 6.51028C65.0752 8.05199 65.625 9.86455 65.625 11.7188C65.625 14.2052 64.6373 16.5897 62.8791 18.3479C61.121 20.106 58.7364 21.0938 56.25 21.0938ZM56.25 7.03125C55.3229 7.03125 54.4166 7.30617 53.6458 7.82124C52.8749 8.33631 52.2741 9.0684 51.9193 9.92492C51.5645 10.7815 51.4717 11.724 51.6526 12.6332C51.8334 13.5425 52.2799 14.3778 52.9354 15.0333C53.591 15.6889 54.4262 16.1353 55.3355 16.3162C56.2448 16.4971 57.1873 16.4042 58.0438 16.0494C58.9004 15.6947 59.6325 15.0938 60.1475 14.323C60.6626 13.5521 60.9375 12.6459 60.9375 11.7188C60.9375 10.4756 60.4436 9.28327 59.5646 8.40419C58.6855 7.52511 57.4932 7.03125 56.25 7.03125Z" fill="#03AB99"/>
<path d="M60.9375 70.3125H51.5625C50.3193 70.3125 49.127 69.8186 48.2479 68.9396C47.3689 68.0605 46.875 66.8682 46.875 65.625V49.2188H51.5625V65.625H60.9375V44.5312H65.625V30.4688C65.625 29.8471 65.3781 29.251 64.9385 28.8115C64.499 28.3719 63.9029 28.125 63.2812 28.125H48.2344L37.5 46.875L26.7656 28.125H11.7188C11.0971 28.125 10.501 28.3719 10.0615 28.8115C9.62193 29.251 9.375 29.8471 9.375 30.4688V44.5312H14.0625V65.625H23.4375V49.2188H28.125V65.625C28.125 66.8682 27.6311 68.0605 26.7521 68.9396C25.873 69.8186 24.6807 70.3125 23.4375 70.3125H14.0625C12.8193 70.3125 11.627 69.8186 10.7479 68.9396C9.86886 68.0605 9.375 66.8682 9.375 65.625V49.2188C8.1318 49.2188 6.93951 48.7249 6.06044 47.8458C5.18136 46.9667 4.6875 45.7745 4.6875 44.5312V30.4688C4.6875 28.6039 5.42829 26.8155 6.74691 25.4969C8.06552 24.1783 9.85395 23.4375 11.7188 23.4375H29.4844L37.5 37.5L45.5156 23.4375H63.2812C65.1461 23.4375 66.9345 24.1783 68.2531 25.4969C69.5717 26.8155 70.3125 28.6039 70.3125 30.4688V44.5312C70.3125 45.7745 69.8186 46.9667 68.9396 47.8458C68.0605 48.7249 66.8682 49.2188 65.625 49.2188V65.625C65.625 66.8682 65.1311 68.0605 64.2521 68.9396C63.373 69.8186 62.1807 70.3125 60.9375 70.3125Z" fill="#03AB99"/>
</svg>
