<svg width="67" height="48" viewBox="0 0 67 48" fill="none" xmlns="http://www.w3.org/2000/svg">
<path d="M56.9375 47.3125H47.5625C46.3193 47.3125 45.127 46.8186 44.2479 45.9396C43.3689 45.0605 42.875 43.8682 42.875 42.625V26.2188H47.5625V42.625H56.9375V21.5312H61.625V7.46875C61.625 6.84715 61.3781 6.25101 60.9385 5.81147C60.499 5.37193 59.9029 5.125 59.2812 5.125H44.2344L33.5 23.875L22.7656 5.125H7.71875C7.09715 5.125 6.50101 5.37193 6.06147 5.81147C5.62193 6.25101 5.375 6.84715 5.375 7.46875V21.5312H10.0625V42.625H19.4375V26.2188H24.125V42.625C24.125 43.8682 23.6311 45.0605 22.7521 45.9396C21.873 46.8186 20.6807 47.3125 19.4375 47.3125H10.0625C8.8193 47.3125 7.62701 46.8186 6.74794 45.9396C5.86886 45.0605 5.375 43.8682 5.375 42.625V26.2188C4.1318 26.2188 2.93951 25.7249 2.06044 24.8458C1.18136 23.9667 0.6875 22.7745 0.6875 21.5312V7.46875C0.6875 5.60395 1.42829 3.81552 2.74691 2.4969C4.06552 1.17829 5.85395 0.4375 7.71875 0.4375H25.4844L33.5 14.5L41.5156 0.4375H59.2812C61.1461 0.4375 62.9345 1.17829 64.2531 2.4969C65.5717 3.81552 66.3125 5.60395 66.3125 7.46875V21.5312C66.3125 22.7745 65.8186 23.9667 64.9396 24.8458C64.0605 25.7249 62.8682 26.2188 61.625 26.2188V42.625C61.625 43.8682 61.1311 45.0605 60.2521 45.9396C59.373 46.8186 58.1807 47.3125 56.9375 47.3125Z" fill="#03AB99"/>
</svg>
