<svg width="24" height="24" viewBox="0 0 24 24" fill="none" xmlns="http://www.w3.org/2000/svg">
<path d="M12.417 5.61019C10.8432 5.61019 9.33393 6.23536 8.22113 7.34816C7.10832 8.46097 6.48316 9.97025 6.48316 11.544C6.48316 13.1177 7.10832 14.627 8.22113 15.7398C9.33393 16.8526 10.8432 17.4778 12.417 17.4778C13.9907 17.4778 15.5 16.8526 16.6128 15.7398C17.7256 14.627 18.3508 13.1177 18.3508 11.544C18.3508 9.97025 17.7256 8.46097 16.6128 7.34816C15.5 6.23536 13.9907 5.61019 12.417 5.61019ZM12.417 15.3976C11.3946 15.3976 10.4141 14.9915 9.69112 14.2686C8.96818 13.5456 8.56204 12.5651 8.56204 11.5427C8.56204 10.5203 8.96818 9.53981 9.69112 8.81687C10.4141 8.09394 11.3946 7.68779 12.417 7.68779C13.4393 7.68779 14.4199 8.09394 15.1428 8.81687C15.8657 9.53981 16.2719 10.5203 16.2719 11.5427C16.2719 12.5651 15.8657 13.5456 15.1428 14.2686C14.4199 14.9915 13.4393 15.3976 12.417 15.3976Z" fill="white"/>
<path d="M18.5857 6.77553C19.3497 6.77553 19.969 6.15618 19.969 5.39218C19.969 4.62817 19.3497 4.00882 18.5857 4.00882C17.8216 4.00882 17.2023 4.62817 17.2023 5.39218C17.2023 6.15618 17.8216 6.77553 18.5857 6.77553Z" fill="white"/>
<path d="M23.3682 3.98581C23.0711 3.21865 22.6171 2.52197 22.0353 1.94037C21.4535 1.35876 20.7566 0.905047 19.9894 0.608266C19.0915 0.271226 18.143 0.0889828 17.1842 0.069296C15.9484 0.015399 15.557 0 12.4233 0C9.28954 0 8.88787 -1.2666e-07 7.66236 0.069296C6.70426 0.0879762 5.7564 0.270257 4.85972 0.608266C4.09224 0.904701 3.39521 1.35829 2.81334 1.93994C2.23147 2.52159 1.77761 3.21845 1.48089 3.98581C1.14378 4.8836 0.961955 5.83222 0.943201 6.79102C0.88802 8.02552 0.871338 8.41691 0.871338 11.5519C0.871338 14.6856 0.871338 15.0847 0.943201 16.3128C0.962449 17.2727 1.14339 18.2197 1.48089 19.1193C1.77845 19.8864 2.23275 20.583 2.81476 21.1645C3.39677 21.7461 4.09369 22.1999 4.861 22.4969C5.75599 22.8474 6.70424 23.0427 7.66493 23.0743C8.90071 23.1282 9.2921 23.1449 12.4258 23.1449C15.5596 23.1449 15.9612 23.1449 17.1867 23.0743C18.1455 23.0548 19.094 22.873 19.9919 22.5366C20.759 22.2392 21.4557 21.7851 22.0374 21.2033C22.6192 20.6215 23.0733 19.9249 23.3708 19.1578C23.7083 18.2595 23.8892 17.3125 23.9085 16.3526C23.9636 15.1181 23.9803 14.7267 23.9803 11.5917C23.9803 8.45669 23.9803 8.05888 23.9085 6.8308C23.8935 5.85844 23.7107 4.89596 23.3682 3.98581ZM21.8052 16.2179C21.7969 16.9574 21.6619 17.6901 21.4061 18.384C21.2134 18.883 20.9184 19.3362 20.54 19.7143C20.1616 20.0925 19.7083 20.3872 19.2091 20.5797C18.5229 20.8343 17.798 20.9693 17.0661 20.9788C15.847 21.0352 15.5031 21.0493 12.3771 21.0493C9.24847 21.0493 8.92894 21.0493 7.68674 20.9788C6.95519 20.9698 6.23066 20.8348 5.54498 20.5797C5.0441 20.3884 4.58895 20.0942 4.20896 19.716C3.82897 19.3378 3.53261 18.884 3.33905 18.384C3.08682 17.6975 2.95191 16.9735 2.93996 16.2422C2.88478 15.0231 2.87194 14.6792 2.87194 11.5532C2.87194 8.4259 2.87194 8.10636 2.93996 6.86288C2.94825 6.12375 3.08324 5.39152 3.33905 4.69802C3.73045 3.68553 4.53248 2.88862 5.54498 2.50108C6.231 2.24717 6.95531 2.1122 7.68674 2.10198C8.90712 2.0468 9.24975 2.0314 12.3771 2.0314C15.5044 2.0314 15.8252 2.0314 17.0661 2.10198C17.7981 2.11079 18.5231 2.2458 19.2091 2.50108C19.7082 2.69392 20.1615 2.98898 20.5399 3.36732C20.9182 3.74566 21.2133 4.19892 21.4061 4.69802C21.6583 5.3845 21.7932 6.10853 21.8052 6.83979C21.8604 8.06017 21.8745 8.4028 21.8745 11.5301C21.8745 14.6561 21.8745 14.9923 21.8193 16.2191H21.8052V16.2179Z" fill="white"/>
</svg>
