<svg width="19" height="16" viewBox="0 0 19 16" fill="none" xmlns="http://www.w3.org/2000/svg">
<path d="M18.7851 2.52993C18.1049 2.83573 17.4247 3.0192 16.6208 3.14152C17.3629 2.65225 17.9812 1.97951 18.2904 1.12329C17.5484 1.5514 16.7445 1.85719 15.9406 2.04067C15.2604 1.30677 14.2711 0.878662 13.2198 0.878662C11.1793 0.878662 9.44786 2.52994 9.44786 4.60932C9.44786 4.91511 9.5097 5.15974 9.57153 5.46553C6.47974 5.34321 3.69713 3.81426 1.84205 1.61256C1.53287 2.04067 1.34736 2.65225 1.34736 3.32499C1.34736 4.60932 2.02756 5.77132 3.01693 6.38291C2.39857 6.38291 1.84205 6.19943 1.34736 5.89364V5.9548C1.34736 7.72839 2.64592 9.25734 4.37732 9.56313C4.06814 9.62429 3.75896 9.68545 3.38795 9.68545C3.1406 9.68545 2.89326 9.68545 2.70775 9.62429C3.20244 11.0921 4.56283 12.1929 6.2324 12.1929C4.93384 13.1715 3.32611 13.7831 1.59471 13.7831C1.28553 13.7831 0.976347 13.7831 0.729004 13.7219C2.21306 14.8839 4.19181 15.4955 6.29423 15.4955C13.158 15.4955 16.93 9.86892 16.93 4.97626V4.487C17.672 3.93657 18.2904 3.32499 18.7851 2.52993Z" fill="white"/>
</svg>
