<svg width="26" height="20" viewBox="0 0 26 20" fill="none" xmlns="http://www.w3.org/2000/svg">
<path d="M26 9.81564C26 9.7516 26 9.67882 25.9971 9.5944C25.9942 9.35861 25.9884 9.09371 25.9827 8.81134C25.9597 7.99916 25.9194 7.18989 25.856 6.4272C25.7697 5.37632 25.643 4.5001 25.4703 3.84221C25.288 3.15564 24.9307 2.52947 24.4341 2.02629C23.9375 1.52312 23.319 1.16055 22.6404 0.974839C21.8256 0.7536 20.2308 0.616782 17.9853 0.532362C16.9172 0.491607 15.7743 0.465408 14.6314 0.450853C14.2313 0.445031 13.8599 0.44212 13.526 0.439209H12.6796C12.3456 0.44212 11.9743 0.445031 11.5741 0.450853C10.4312 0.465408 9.2883 0.491607 8.22025 0.532362C5.97476 0.619693 4.377 0.756511 3.56517 0.974839C2.88634 1.1601 2.26759 1.52251 1.77092 2.02576C1.27425 2.529 0.9171 3.15541 0.735273 3.84221C0.559664 4.5001 0.435873 5.37632 0.349508 6.4272C0.286174 7.18989 0.24587 7.99916 0.222839 8.81134C0.214203 9.09371 0.211324 9.35861 0.208445 9.5944C0.208445 9.67882 0.205566 9.7516 0.205566 9.81564V9.97866C0.205566 10.0427 0.205566 10.1155 0.208445 10.1999C0.211324 10.4357 0.217082 10.7006 0.222839 10.983C0.24587 11.7951 0.286174 12.6044 0.349508 13.3671C0.435873 14.418 0.562542 15.2942 0.735273 15.9521C1.10376 17.3465 2.18621 18.4469 3.56517 18.8195C4.377 19.0407 5.97476 19.1775 8.22025 19.2619C9.2883 19.3027 10.4312 19.3289 11.5741 19.3435C11.9743 19.3493 12.3456 19.3522 12.6796 19.3551H13.526C13.8599 19.3522 14.2313 19.3493 14.6314 19.3435C15.7743 19.3289 16.9172 19.3027 17.9853 19.2619C20.2308 19.1746 21.8285 19.0378 22.6404 18.8195C24.0193 18.4469 25.1018 17.3494 25.4703 15.9521C25.6459 15.2942 25.7697 14.418 25.856 13.3671C25.9194 12.6044 25.9597 11.7951 25.9827 10.983C25.9913 10.7006 25.9942 10.4357 25.9971 10.1999C25.9971 10.1155 26 10.0427 26 9.97866V9.81564ZM23.9272 9.96702C23.9272 10.0281 23.9272 10.0951 23.9243 10.1737C23.9214 10.4008 23.9157 10.6511 23.9099 10.9218C23.8898 11.6962 23.8495 12.4705 23.789 13.1895C23.7113 14.1269 23.6019 14.8954 23.4666 15.4106C23.2881 16.0831 22.7641 16.6158 22.102 16.7934C21.4975 16.9564 19.9746 17.0874 17.9047 17.166C16.8568 17.2068 15.7283 17.233 14.6026 17.2475C14.2082 17.2533 13.8426 17.2562 13.5144 17.2562H12.6911L11.6029 17.2475C10.4773 17.233 9.35164 17.2068 8.30086 17.166C6.23098 17.0845 4.70519 16.9564 4.10351 16.7934C3.44138 16.6129 2.91743 16.0831 2.73894 15.4106C2.60364 14.8954 2.49424 14.1269 2.41651 13.1895C2.35606 12.4705 2.31863 11.6962 2.2956 10.9218C2.28697 10.6511 2.28409 10.3978 2.28121 10.1737C2.28121 10.0951 2.27833 10.0252 2.27833 9.96702V9.82729C2.27833 9.76616 2.27833 9.6992 2.28121 9.6206C2.28409 9.39354 2.28985 9.14319 2.2956 8.87247C2.31576 8.09813 2.35606 7.3238 2.41651 6.60477C2.49424 5.66742 2.60364 4.89891 2.73894 4.38366C2.91743 3.71121 3.44138 3.17849 4.10351 3.00092C4.70807 2.8379 6.23098 2.7069 8.30086 2.6283C9.34876 2.58755 10.4773 2.56135 11.6029 2.5468C11.9973 2.54097 12.3629 2.53806 12.6911 2.53806H13.5144L14.6026 2.5468C15.7283 2.56135 16.8539 2.58755 17.9047 2.6283C19.9746 2.70981 21.5003 2.8379 22.102 3.00092C22.7641 3.1814 23.2881 3.71121 23.4666 4.38366C23.6019 4.89891 23.7113 5.66742 23.789 6.60477C23.8495 7.3238 23.8869 8.09813 23.9099 8.87247C23.9186 9.14319 23.9214 9.39645 23.9243 9.6206C23.9243 9.6992 23.9272 9.76907 23.9272 9.82729V9.96702ZM10.5406 13.7979L17.2195 9.86804L10.5406 5.99637V13.7979Z" fill="white"/>
</svg>
